<svg width="540" height="540" viewBox="0 0 540 540" fill="none" xmlns="http://www.w3.org/2000/svg">
<path d="M150.037 395.803C161.604 404.256 173.5 412.704 175.162 413.879C173.392 413.951 171.629 414.011 169.871 414.047C162.959 408.192 156.348 402.103 150.037 395.803ZM226.889 405.81C239.59 402.421 252.266 397.945 264.751 392.504C225.713 407.538 189.303 412.5 178.588 413.705C194.318 412.788 210.535 410.178 226.889 405.81ZM115.084 246.743C128.247 269.156 146.827 290.43 169.937 308.854C178.618 315.778 187.881 322.257 197.66 328.202C195.362 325.982 193.088 323.745 190.887 321.465C170.405 300.155 154.77 276.644 144.661 252.694C134.828 229.404 130.353 206.025 131.559 184.091C132.651 164.305 138.356 145.857 148.801 129.761C142.058 133.276 135.38 137.08 128.817 141.226C115.636 149.547 103.614 158.72 92.7787 168.481C92.6887 172.434 92.7967 176.424 93.1027 180.444C94.7765 202.347 102.288 224.941 115.084 246.743ZM528.58 283.291C522.01 259.593 511.247 236.286 497.203 214.454C489.938 203.139 481.713 192.148 472.689 181.601C477.807 193.312 481.323 205.731 483.182 218.666C488.258 229.368 492.301 240.287 495.109 251.254C500.113 270.758 501.354 290.586 497.893 309.688C494.263 329.642 485.852 346.974 473.439 361.121C460.493 375.873 443.257 387.116 422.745 394.135C418.707 395.521 414.519 396.679 410.254 397.729C398.681 408.972 385.842 419.675 371.726 429.634C342.545 450.206 311.006 465.498 278.897 475.523C303.549 483.724 327.912 488.386 351.268 489.706C385.656 491.643 417.237 486.328 444.186 474.947C469.882 464.112 491.108 447.854 506.646 427.306C521.374 407.802 530.931 384.524 534.465 358.259C537.819 333.38 535.437 307.966 528.58 283.291ZM131.133 135.976C138.542 131.303 146.065 126.995 153.672 122.981C164.645 108.691 178.81 97.7721 195.026 90.1589C211.914 82.2337 231.1 77.8062 251.348 76.7383C270.99 75.6944 291.802 77.8062 312.8 83.0076C317.132 84.0875 321.487 85.3294 325.849 86.6792C331.062 87.2012 336.234 87.8791 341.339 88.725C329.316 84.0635 317.276 80.2179 305.325 77.2242C279.707 70.8229 254.108 68.1412 229.751 69.269C204.451 70.4509 180.184 75.7544 158.46 85.4314C135.968 95.4443 116.032 110.269 100.548 130.139C96.1804 140.95 93.6726 152.36 92.9587 164.137C104.657 154.112 117.382 144.651 131.133 135.976Z" fill="#1E7FAD"/>
<path d="M410.254 397.729C426.722 381.723 440.605 364.613 451.739 346.908C470.08 317.769 480.71 287.556 483.8 258.465C485.258 244.817 485.03 231.486 483.188 218.66C481.328 205.725 477.813 193.306 472.695 181.595C472.569 181.307 472.455 181.019 472.329 180.738C462.412 158.414 446.67 138.778 425.384 122.975C405.232 108.007 381.853 97.7841 356.949 91.8267C351.826 90.6028 346.606 89.5889 341.339 88.719C336.233 87.8731 331.062 87.1952 325.849 86.6732C311.342 85.2214 296.488 84.9814 281.531 85.9713C256.286 87.6391 230.392 92.7026 205.039 101.048C187.749 106.747 170.519 114.072 153.672 122.975C146.071 126.995 138.542 131.297 131.133 135.97C117.382 144.645 104.657 154.106 92.9646 164.137C92.8746 165.577 92.8146 167.023 92.7786 168.475C103.619 158.714 115.642 149.547 128.823 141.22C135.386 137.068 142.07 133.27 148.807 129.755C162.299 122.717 176.074 116.91 189.867 112.393C210.732 105.541 231.922 101.456 252.434 100.244C273.372 98.99 293.848 100.718 312.71 105.619C332.196 110.683 350.146 119.196 365.198 131.477C380.899 144.303 391.98 160.058 398.357 177.762C405.004 196.228 406.492 216.764 402.713 238.104C398.795 260.241 389.25 283.063 374.132 304.985C358.731 327.338 337.757 348.42 311.66 366.448C312.812 366.55 313.976 366.676 315.122 366.766C305.037 373.588 294.394 379.425 283.673 384.458C277.356 387.422 271.02 390.098 264.745 392.516C252.26 397.951 239.589 402.433 226.883 405.822C210.528 410.19 194.312 412.8 178.576 413.717C176.518 413.945 175.378 414.047 175.378 414.047C175.378 414.047 175.288 413.981 175.156 413.891C173.386 413.963 171.622 414.023 169.865 414.059C161.16 414.221 152.616 413.867 144.319 412.986C119.188 410.322 96.5582 402.925 77.9481 391.262C60.052 380.001 46.0254 364.906 37.0084 346.41C28.4053 328.736 25.1956 309.592 26.4795 290.22C27.5893 273.62 32.0409 256.762 39.2761 240.359C38.4302 236.274 37.7283 232.2 37.1644 228.139C32.7068 235.236 28.6212 242.441 25.0156 249.748C13.8028 272.45 6.6995 296.262 4.64772 319.935C2.49394 344.791 5.89559 369.724 16.1005 393.158C26.9114 417.977 44.2556 438.681 66.8133 454.507C90.5108 471.162 119.674 482.26 152.37 487.018C186.267 491.955 223.337 489.982 260.995 480.563C266.977 479.069 272.946 477.371 278.897 475.511C311.006 465.486 342.545 450.194 371.726 429.622C385.842 419.675 398.681 408.972 410.254 397.729Z" fill="#1C76A1"/>
<path d="M60.3339 297.234C76.5203 327.416 100.146 356.045 130.101 380.733C134.246 384.153 142.057 389.972 150.037 395.803C161.603 404.256 173.5 412.704 175.162 413.879C175.294 413.969 175.384 414.035 175.384 414.035C175.384 414.035 176.53 413.933 178.582 413.705C189.297 412.5 225.707 407.538 264.745 392.504C271.02 390.086 277.355 387.41 283.673 384.447C294.394 379.413 305.037 373.57 315.122 366.754C313.976 366.67 312.812 366.538 311.66 366.436C292.198 364.697 271.938 360.485 251.39 353.418C232.21 346.818 214.194 338.269 197.654 328.202C187.881 322.251 178.612 315.778 169.931 308.854C146.821 290.424 128.241 269.15 115.078 246.743C102.282 224.941 94.7764 202.347 93.0905 180.438C92.7846 176.418 92.6766 172.428 92.7666 168.475C92.8026 167.023 92.8686 165.577 92.9526 164.137C93.6605 152.354 96.1742 140.95 100.542 130.139C101.808 127.001 103.217 123.911 104.795 120.876C113.884 103.436 127.365 89.4749 143.701 79.006C159.408 68.9331 177.844 62.0338 197.78 58.3082C217.116 54.7085 238.018 54.0666 259.519 56.4844C280.595 58.8481 302.475 64.1816 324.367 72.6887C329.334 74.6205 334.182 76.7083 338.957 78.892L341.501 76.3423C337.673 74.6805 333.882 72.9587 329.952 71.4288C303.519 61.1399 277.014 54.6485 251.372 51.7268C225.125 48.7392 199.394 49.4291 175.39 53.7546C150.463 58.2362 127.101 66.6773 106.835 79.108C85.5733 92.1567 67.5452 109.717 54.7785 131.855C41.2499 155.3 34.9266 181.553 35.5925 209.103C35.7485 215.402 36.2884 221.755 37.1643 228.139C37.7223 232.2 38.4242 236.28 39.2761 240.359C43.2297 259.347 50.279 278.479 60.3339 297.234Z" fill="#2AAEED"/>
</svg>
