<svg width="64" height="64" viewBox="0 0 64 64" fill="none" xmlns="http://www.w3.org/2000/svg">
<g clip-path="url(#clip0_240_123)">
<path d="M30.0001 0C30.5751 0 31.1501 0.125 31.6751 0.3625L55.2126 10.35C57.9626 11.5125 60.0126 14.225 60.0001 17.5C59.9376 29.9 54.8376 52.5875 33.2876 62.9C31.2001 63.9 28.7751 63.9 26.6876 62.9C5.16256 52.5875 0.0625569 29.9 5.68562e-05 17.5C-0.0124431 14.225 2.03756 11.5125 4.78756 10.35L28.3376 0.3625C28.8501 0.125 29.4251 0 30.0001 0ZM30.0001 8.35V55.6C47.2501 47.25 51.8876 28.7625 52.0001 17.675L30.0001 8.35Z" fill="#2F9BCF"/>
</g>
<defs>
<clipPath id="clip0_240_123">
<rect width="64" height="64" fill="white"/>
</clipPath>
</defs>
</svg>
