<svg width="64" height="64" viewBox="0 0 64 64" fill="none" xmlns="http://www.w3.org/2000/svg">
<g clip-path="url(#clip0_238_111)">
<path d="M31.9998 4C33.7748 4 35.4123 4.9375 36.3123 6.475L63.3123 52.475C64.2248 54.025 64.2248 55.9375 63.3373 57.4875C62.4498 59.0375 60.7873 60 58.9998 60H4.99978C3.21228 60 1.54978 59.0375 0.662281 57.4875C-0.225219 55.9375 -0.212719 54.0125 0.687281 52.475L27.6873 6.475C28.5873 4.9375 30.2248 4 31.9998 4ZM31.9998 20C30.3373 20 28.9998 21.3375 28.9998 23V37C28.9998 38.6625 30.3373 40 31.9998 40C33.6623 40 34.9998 38.6625 34.9998 37V23C34.9998 21.3375 33.6623 20 31.9998 20ZM35.9998 48C35.9998 46.9391 35.5784 45.9217 34.8282 45.1716C34.0781 44.4214 33.0606 44 31.9998 44C30.9389 44 29.9215 44.4214 29.1714 45.1716C28.4212 45.9217 27.9998 46.9391 27.9998 48C27.9998 49.0609 28.4212 50.0783 29.1714 50.8284C29.9215 51.5786 30.9389 52 31.9998 52C33.0606 52 34.0781 51.5786 34.8282 50.8284C35.5784 50.0783 35.9998 49.0609 35.9998 48Z" fill="#2F9BCF"/>
</g>
<defs>
<clipPath id="clip0_238_111">
<rect width="64" height="64" fill="white"/>
</clipPath>
</defs>
</svg>
