<svg width="64" height="52" viewBox="0 0 64 52" fill="none" xmlns="http://www.w3.org/2000/svg">
<g clip-path="url(#clip0_240_115)">
<path d="M14.4 16C16.5217 16 18.5566 15.1571 20.0569 13.6569C21.5571 12.1566 22.4 10.1217 22.4 8C22.4 5.87827 21.5571 3.84344 20.0569 2.34315C18.5566 0.842855 16.5217 0 14.4 0C12.2783 0 10.2434 0.842855 8.74315 2.34315C7.24285 3.84344 6.4 5.87827 6.4 8C6.4 10.1217 7.24285 12.1566 8.74315 13.6569C10.2434 15.1571 12.2783 16 14.4 16ZM51.2 16C53.3217 16 55.3566 15.1571 56.8569 13.6569C58.3571 12.1566 59.2 10.1217 59.2 8C59.2 5.87827 58.3571 3.84344 56.8569 2.34315C55.3566 0.842855 53.3217 0 51.2 0C49.0783 0 47.0434 0.842855 45.5431 2.34315C44.0429 3.84344 43.2 5.87827 43.2 8C43.2 10.1217 44.0429 12.1566 45.5431 13.6569C47.0434 15.1571 49.0783 16 51.2 16ZM0 29.87C0 31.04 0.96 32 2.13 32H23.47C23.49 32 23.51 32 23.54 32C20.88 29.65 19.21 26.22 19.21 22.4C19.21 21.64 19.28 20.9 19.4 20.17C18.04 19.54 16.53 19.2 14.94 19.2H10.67C4.78 19.2 0 23.98 0 29.87ZM32 32C34.4 32 36.59 31.12 38.27 29.67C38.52 29.3 38.79 28.94 39.07 28.6C39.34 28.27 39.64 27.99 39.97 27.77C41 26.23 41.6 24.39 41.6 22.4C41.6 17.1 37.3 12.8 32 12.8C26.7 12.8 22.4 17.1 22.4 22.4C22.4 27.7 26.7 32 32 32ZM38.54 38.02C37.51 37.43 36.73 36.4 36.46 35.2H26.13C18.77 35.2 12.8 41.17 12.8 48.53C12.8 50 13.99 51.2 15.47 51.2H45.52C45.31 50.68 45.2 50.11 45.2 49.56V49.26C45.07 49.19 44.93 49.11 44.8 49.03L44.54 49.18C42.86 50.15 40.49 49.98 39.07 48.21C38.62 47.65 38.21 47.06 37.83 46.45L37.82 46.43L37.81 46.41L37.57 46L37.56 45.98L37.55 45.96C37.21 45.34 36.91 44.7 36.65 44.03C35.83 41.91 36.87 39.77 38.55 38.8L38.82 38.65C38.82 38.57 38.82 38.5 38.82 38.42C38.82 38.34 38.82 38.27 38.82 38.19L38.55 38.04L38.54 38.02ZM53.33 19.2H49.07C47.48 19.2 45.97 19.55 44.61 20.17C44.74 20.89 44.8 21.64 44.8 22.4C44.8 24.14 44.45 25.79 43.83 27.3C44.08 27.39 44.32 27.5 44.54 27.63L44.8 27.78C44.93 27.7 45.06 27.62 45.2 27.55V27.25C45.2 25.31 46.53 23.34 48.78 22.99C49.57 22.87 50.38 22.8 51.2 22.8C52.02 22.8 52.83 22.86 53.62 22.99C55.87 23.34 57.2 25.31 57.2 27.25V27.55C57.33 27.62 57.47 27.7 57.6 27.78L57.86 27.63C59.54 26.66 61.91 26.83 63.33 28.6C63.56 28.88 63.78 29.18 63.99 29.47C63.78 23.76 59.09 19.2 53.33 19.2ZM62.46 35.59C63.09 35.23 63.41 34.48 63.14 33.79C62.93 33.24 62.68 32.71 62.4 32.2L62.17 31.8C61.86 31.29 61.52 30.81 61.15 30.35C60.69 29.78 59.88 29.68 59.25 30.05L57.44 31.1C56.55 30.34 55.53 29.74 54.4 29.34V27.24C54.4 26.51 53.91 25.86 53.19 25.75C52.54 25.65 51.88 25.6 51.2 25.6C50.52 25.6 49.86 25.65 49.21 25.75C48.49 25.86 48 26.51 48 27.24V29.34C46.88 29.74 45.85 30.34 44.96 31.1L43.14 30.05C42.51 29.69 41.7 29.79 41.24 30.35C40.87 30.81 40.53 31.3 40.22 31.81L39.99 32.2C39.71 32.71 39.46 33.24 39.25 33.79C38.99 34.47 39.3 35.22 39.93 35.58L41.75 36.63C41.65 37.2 41.59 37.79 41.59 38.39C41.59 38.99 41.65 39.58 41.75 40.14L39.93 41.19C39.3 41.55 38.98 42.3 39.25 42.98C39.46 43.53 39.71 44.05 39.99 44.56L40.23 44.97C40.53 45.48 40.87 45.96 41.24 46.42C41.7 46.99 42.51 47.09 43.14 46.72L44.96 45.7C45.85 46.46 46.88 47.06 48 47.46V49.56C48 50.29 48.49 50.94 49.21 51.05C49.86 51.15 50.52 51.2 51.2 51.2C51.88 51.2 52.54 51.15 53.19 51.05C53.91 50.94 54.4 50.29 54.4 49.56V47.46C55.52 47.06 56.55 46.46 57.44 45.7L59.26 46.75C59.89 47.11 60.7 47.01 61.16 46.45C61.53 45.99 61.87 45.51 62.17 45L62.41 44.58C62.69 44.07 62.94 43.55 63.15 43C63.41 42.32 63.1 41.57 62.47 41.21L60.65 40.16C60.75 39.59 60.81 39 60.81 38.41C60.81 37.82 60.75 37.22 60.65 36.65L62.47 35.6L62.46 35.59ZM47.2 38.4C47.2 37.3391 47.6214 36.3217 48.3716 35.5716C49.1217 34.8214 50.1391 34.4 51.2 34.4C52.2609 34.4 53.2783 34.8214 54.0284 35.5716C54.7786 36.3217 55.2 37.3391 55.2 38.4C55.2 39.4609 54.7786 40.4783 54.0284 41.2284C53.2783 41.9786 52.2609 42.4 51.2 42.4C50.1391 42.4 49.1217 41.9786 48.3716 41.2284C47.6214 40.4783 47.2 39.4609 47.2 38.4Z" fill="#2F9BCF"/>
</g>
<defs>
<clipPath id="clip0_240_115">
<rect width="64" height="51.2" fill="white"/>
</clipPath>
</defs>
</svg>
