<svg width="64" height="52" viewBox="0 0 64 52" fill="none" xmlns="http://www.w3.org/2000/svg">
<g clip-path="url(#clip0_240_113)">
<path d="M16 6.4C16 2.87 18.87 0 22.4 0H57.6C61.13 0 64 2.87 64 6.4V35.2C64 38.73 61.13 41.6 57.6 41.6H33.68C32.5 39.05 30.69 36.85 28.44 35.2H38.4V32C38.4 30.23 39.83 28.8 41.6 28.8H48C49.77 28.8 51.2 30.23 51.2 32V35.2H57.6V6.4H22.4V11.31C20.52 10.22 18.33 9.6 16 9.6V6.4ZM16 12.8C17.2607 12.8 18.509 13.0483 19.6738 13.5308C20.8385 14.0132 21.8968 14.7203 22.7882 15.6118C23.6797 16.5032 24.3868 17.5615 24.8692 18.7262C25.3517 19.891 25.6 21.1393 25.6 22.4C25.6 23.6607 25.3517 24.909 24.8692 26.0738C24.3868 27.2385 23.6797 28.2968 22.7882 29.1882C21.8968 30.0797 20.8385 30.7868 19.6738 31.2692C18.509 31.7517 17.2607 32 16 32C14.7393 32 13.491 31.7517 12.3262 31.2692C11.1615 30.7868 10.1032 30.0797 9.21177 29.1882C8.32033 28.2968 7.6132 27.2385 7.13076 26.0738C6.64831 24.909 6.4 23.6607 6.4 22.4C6.4 21.1393 6.64831 19.891 7.13076 18.7262C7.6132 17.5615 8.32033 16.5032 9.21177 15.6118C10.1032 14.7203 11.1615 14.0132 12.3262 13.5308C13.491 13.0483 14.7393 12.8 16 12.8ZM13.33 35.2H18.66C26.03 35.2 32 41.17 32 48.53C32 50 30.81 51.2 29.33 51.2H2.67C1.19 51.2 0 50.01 0 48.53C0 41.17 5.97 35.2 13.33 35.2Z" fill="#2F9BCF"/>
</g>
<defs>
<clipPath id="clip0_240_113">
<rect width="64" height="51.2" fill="white"/>
</clipPath>
</defs>
</svg>
