<svg width="33" height="32" viewBox="0 0 33 32" fill="none" xmlns="http://www.w3.org/2000/svg">
<g clip-path="url(#clip0_245_12)">
<path d="M0.643963 25.5056L0.80324 25.0257C1.18048 23.9044 2.41693 22.735 3.55287 22.4269L7.75697 21.2785C8.89706 20.9683 10.5234 21.3854 11.3575 22.2194L12.8791 23.741C18.4087 22.2468 22.7448 17.9106 24.237 12.382L22.7153 10.8604C21.8812 10.0263 21.4642 8.4021 21.7744 7.26201L22.9208 3.05582C23.2309 1.91781 24.4025 0.681355 25.5216 0.308278L26.0015 0.146922C27.1227 -0.226155 28.7218 0.151147 29.5559 0.985222L31.8319 3.26332C32.2385 3.66778 32.4984 4.82464 32.4984 4.82886C32.578 12.055 29.7445 19.0171 24.633 24.1286C19.5341 29.2276 12.5981 32.0569 5.39297 31.9961C5.35528 31.9961 4.16489 31.7404 3.75828 31.3358L1.48226 29.0598C0.64819 28.2258 0.270954 26.6268 0.643963 25.5056Z" fill="#2AAEED"/>
</g>
<defs>
<clipPath id="clip0_245_12">
<rect width="32" height="32" fill="white" transform="matrix(-1 0 0 1 32.5 0)"/>
</clipPath>
</defs>
</svg>
